<?xml version="1.0" encoding="utf-8"?>
<!-- Generator: Adobe Illustrator 24.1.2, SVG Export Plug-In . SVG Version: 6.00 Build 0)  -->
<svg version="1.1" id="Layer_1" xmlns="http://www.w3.org/2000/svg" xmlns:xlink="http://www.w3.org/1999/xlink" x="0px" y="0px"
	 viewBox="0 0 1080 450" style="enable-background:new 0 0 1080 450;" xml:space="preserve">
<style type="text/css">
	.st0{fill:#0A0A0A;}
	.st1{clip-path:url(#SVGID_2_);fill:#FFFFFF;}
</style>
<g>
	<rect x="174.88" y="0" class="st0" width="742.56" height="450"/>
	<g>
		<defs>
			<rect id="SVGID_1_" x="174.88" y="0" width="742.56" height="450"/>
		</defs>
		<clipPath id="SVGID_2_">
			<use xlink:href="#SVGID_1_"  style="overflow:visible;"/>
		</clipPath>
		<path class="st1" d="M546.17,89.53l144.12,134.33l0.66,0.61l-0.66,0.61L547.04,359.65l-0.87,0.82l-0.87-0.82L402.05,225.09
			l-0.66-0.61l0.66-0.61L546.17,89.53z M546.17,90.69l-35.23,36.14l-34.3,35.44l-33.86,34.41c-11.22,11.38-22.57,22.46-33.85,33.62
			v-11.65c12.27,10.9,24.49,21.86,36.58,32.93l36.39,33.1l36.09,33.38l36.03,33.44h-15.68l36.04-33.43
			c12.04-11.12,23.96-22.34,36.1-33.37l36.38-33.1c12.09-11.07,24.32-22.01,36.58-32.92v11.61c-11.28-11.16-22.65-22.23-33.86-33.62
			l-33.87-34.41l-34.31-35.44L546.17,90.69z"/>
		<path class="st1" d="M595.12,181.1c-6.37,8.33-13.2,16.27-20.18,24.08c-6.95,7.83-14.17,15.44-21.44,23
			c-7.36,7.49-14.77,14.93-22.45,22.14c-7.65,7.24-15.46,14.33-23.73,21.05c6.37-8.33,13.19-16.28,20.17-24.08
			c6.95-7.83,14.17-15.44,21.45-22.99c7.36-7.48,14.78-14.92,22.46-22.13C579.05,194.92,586.86,187.82,595.12,181.1"/>
		<path class="st1" d="M489.46,174.95c0.86,16.46,0.43,32.98-1.28,49.39c-0.2,1.91-0.42,3.81-0.65,5.72
			c-0.16,1.32-0.64,2.97,0.24,4.17c1.8,2.46,7.47,1.85,10.17,1.84c8.54-0.04,16.76-1.6,24.77-4.35c1.5-0.51,3.45-2.26,2.26-3.8
			c-1.27-1.63-4.41-0.88-5.99-0.34c-6.58,2.26-13.66,3.35-20.66,3.07c-0.5-0.02-1.93,0.13-2.33-0.13c0.89,0.58,0.43-0.5,0.53-1.32
			c0.21-1.71,0.41-3.43,0.59-5.15c0.36-3.44,0.67-6.88,0.93-10.33c1-13.66,1.07-27.35,0.36-41.02
			C498.23,169.52,489.28,171.34,489.46,174.95"/>
		<path class="st1" d="M566.15,234.77c1.32,22.59,1.23,45.24-0.17,67.83c-0.26,4.12,8.8,2.79,9.02-0.74
			c1.43-23.1,1.43-46.23,0.08-69.33C574.88,229.03,565.93,230.94,566.15,234.77"/>
		<path class="st1" d="M569.81,256.61c-1.05,0.14-2.1,0.28-3.15,0.42c-0.51,0.03-1.01,0.12-1.49,0.27
			c-0.58,0.13-1.15,0.31-1.69,0.53c-0.56,0.21-1.09,0.46-1.59,0.77c-0.45,0.23-0.86,0.5-1.25,0.82c-0.18,0.18-0.36,0.36-0.54,0.54
			c-0.27,0.27-0.36,0.57-0.27,0.91c0.1,0.1,0.21,0.2,0.31,0.3c0.44,0.16,0.89,0.22,1.37,0.16c1.05-0.14,2.1-0.28,3.15-0.41
			c0.51-0.04,1.01-0.12,1.49-0.27c0.58-0.13,1.15-0.31,1.69-0.54c0.56-0.21,1.08-0.46,1.59-0.77c0.45-0.23,0.86-0.51,1.24-0.82
			c0.18-0.18,0.36-0.36,0.54-0.54c0.27-0.26,0.35-0.57,0.27-0.91c-0.1-0.1-0.21-0.2-0.31-0.3
			C570.73,256.6,570.28,256.55,569.81,256.61"/>
		<path class="st1" d="M562.72,237.93c3.14,0.28,6.05-0.47,8.97-1.47c0.42-0.14,0.83-0.29,1.24-0.43c0.52-0.18,0.55-0.19,0.08-0.03
			c0.27-0.09,0.55-0.18,0.83-0.26c0.19-0.05,1.88-0.38,0.89-0.26c0.29-0.04,0.57-0.06,0.86-0.08c-0.43-0.01-0.4,0,0.1,0.03
			c0.48,0.07,0.53,0.07,0.15,0.01c0.19,0.04,0.38,0.1,0.57,0.16c0.19,0.06,0.38,0.12,0.56,0.19c-0.25-0.12-0.18-0.08,0.22,0.11
			c0.84,0.42,1.64,0.98,2.28,1.57c1.5,1.37,2.75,3.05,3.76,4.76c0.81,1.37,1.58,3.18,1.55,4.69c0,0.18-0.16,1.13-0.1,0.95
			c-0.09,0.22-0.2,0.42-0.32,0.62c0.19-0.23,0.14-0.19-0.15,0.14c0.4-0.25-0.67,0.31-0.1,0.02c-0.59,0.29-1.21,0.54-1.8,0.81
			c-5.04,2.22-10.08,4.43-15.13,6.62c-1.51,0.66-3.49,2.47-2.17,4.1c1.32,1.62,4.35,1.23,6.03,0.51c4.48-1.95,8.96-3.9,13.43-5.87
			c4.08-1.8,9.27-3.84,9.35-8.8c0.06-3.8-2.04-7.41-4.46-10.34c-2.59-3.15-6.16-5.58-10.48-6.01c-2.66-0.26-5.32,0.27-7.82,1.09
			c-0.8,0.27-1.6,0.55-2.4,0.83c-0.04,0.01-0.73,0.25-0.25,0.09c0.54-0.18-0.56,0.17-0.66,0.2c-0.21,0.06-0.41,0.12-0.62,0.17
			c-0.09,0.02-0.95,0.21-0.43,0.12c0.56-0.1-0.31,0.02-0.45,0.03c-0.72,0.05,0.95,0.09-0.35-0.03c-2.07-0.18-4.85,0.64-5.83,2.5
			C559.09,236.49,560.92,237.77,562.72,237.93"/>
	</g>
</g>
</svg>
