<?xml version="1.0" encoding="utf-8"?>
<!-- Generator: Adobe Illustrator 24.1.1, SVG Export Plug-In . SVG Version: 6.00 Build 0)  -->
<svg version="1.1" id="Layer_1" xmlns="http://www.w3.org/2000/svg" xmlns:xlink="http://www.w3.org/1999/xlink" x="0px" y="0px"
	 viewBox="0 0 150 150" style="enable-background:new 0 0 150 150;" xml:space="preserve">
<style type="text/css">
	.st0{fill:#FFFFFF;}
</style>
<g>
	<path class="st0" d="M75.54,25.82L64.11,38.34L52.98,50.63L41.99,62.55c-3.64,3.94-7.33,7.78-10.99,11.65l0-4.03
		c3.98,3.78,7.95,7.57,11.87,11.41l11.81,11.47l11.71,11.57l11.69,11.58H73l11.69-11.58c3.91-3.85,7.78-7.74,11.71-11.56
		l11.81-11.47c3.92-3.84,7.89-7.63,11.87-11.41l0,4.02c-3.66-3.86-7.35-7.7-10.99-11.65L98.11,50.62L86.97,38.34L75.54,25.82z
		 M75.54,25.42l46.76,46.54l0.21,0.21l-0.21,0.21l-46.48,46.62l-0.28,0.28l-0.28-0.28L28.78,72.39l-0.21-0.21l0.21-0.21L75.54,25.42
		z"/>
</g>
<g>
	<path class="st0" d="M91.43,57.11c-2.27,3.05-4.69,5.96-7.16,8.83c-2.46,2.88-5.01,5.67-7.57,8.45c-2.59,2.76-5.2,5.49-7.89,8.15
		c-2.68,2.67-5.42,5.29-8.3,7.77c2.27-3.05,4.69-5.97,7.16-8.83c2.46-2.88,5.01-5.67,7.57-8.45c2.59-2.75,5.2-5.49,7.89-8.15
		C85.82,62.21,88.55,59.59,91.43,57.11z"/>
</g>
<g>
	<g>
		<path class="st0" d="M59.14,54.02c0.28,5.7,0.14,11.43-0.42,17.11c-0.06,0.66-0.14,1.32-0.21,1.98c-0.05,0.46-0.21,1.03,0.08,1.45
			c0.58,0.85,2.42,0.64,3.3,0.64c2.77-0.01,5.44-0.55,8.04-1.51c0.49-0.18,1.12-0.78,0.73-1.32c-0.41-0.57-1.43-0.3-1.94-0.12
			c-2.14,0.78-4.43,1.16-6.7,1.06c-0.16-0.01-0.63,0.04-0.76-0.05c0.29,0.2,0.14-0.17,0.17-0.46c0.07-0.59,0.13-1.19,0.19-1.78
			c0.12-1.19,0.22-2.38,0.3-3.58c0.32-4.73,0.35-9.48,0.12-14.21C61.99,52.14,59.08,52.77,59.14,54.02L59.14,54.02z"/>
	</g>
</g>
<g>
	<g>
		<path class="st0" d="M81.18,75.48c0.42,7.92,0.41,15.85-0.04,23.76c-0.08,1.43,2.86,0.97,2.93-0.26
			c0.45-7.91,0.46-15.84,0.04-23.76C84.03,73.78,81.11,74.29,81.18,75.48L81.18,75.48z"/>
	</g>
</g>
<g>
	<g>
		<path class="st0" d="M80.39,76.82c0.96,0.09,1.85-0.14,2.73-0.46c0.17-0.06,0.35-0.13,0.52-0.2c0.09-0.03,0.17-0.07,0.26-0.1
			c-0.16,0.06-0.15,0.06,0.02,0c0.06-0.02,0.61-0.14,0.27-0.09c0.07-0.01,0.41-0.01,0.17-0.03c0.09,0,0.17,0.01,0.25,0.03
			c-0.13-0.03-0.11-0.02,0.04,0.02c0.08,0.03,0.16,0.05,0.24,0.09c-0.09-0.04-0.07-0.03,0.06,0.04c0.23,0.14,0.45,0.29,0.62,0.45
			c0.51,0.48,0.91,1.08,1.25,1.68c0.27,0.47,0.51,1.1,0.52,1.62c0,0.14-0.01,0.29-0.05,0.42c0.04-0.15-0.17,0.32-0.04,0.14
			c-0.03,0.05-0.24,0.18-0.1,0.1c-0.16,0.09-0.33,0.17-0.5,0.25c-1.61,0.78-3.23,1.56-4.85,2.33c-0.49,0.23-1.14,0.85-0.7,1.42
			c0.42,0.56,1.41,0.43,1.96,0.17c1.43-0.68,2.87-1.37,4.3-2.06c1.33-0.64,2.92-1.37,2.92-3.09c0-1.29-0.66-2.52-1.41-3.52
			c-0.82-1.09-1.95-1.93-3.33-2.08c-0.97-0.11-1.9,0.16-2.8,0.49c-0.15,0.06-0.31,0.12-0.46,0.17c-0.09,0.03-0.17,0.07-0.26,0.1
			c0.15-0.05,0.11-0.04-0.02,0c-0.07,0.02-0.13,0.04-0.2,0.06c-0.03,0.01-0.31,0.08-0.13,0.04c0.19-0.04-0.09,0.01-0.14,0.01
			c-0.23,0.02,0.31,0.03-0.1-0.01c-0.67-0.06-1.57,0.22-1.89,0.87C79.22,76.32,79.81,76.77,80.39,76.82L80.39,76.82z"/>
	</g>
</g>
<g>
	<g>
		<path class="st0" d="M81.84,83.04c-0.34,0-0.69,0-1.03,0c-0.17-0.01-0.33,0-0.49,0.02c-0.19,0.02-0.38,0.05-0.57,0.11
			c-0.19,0.05-0.37,0.11-0.55,0.19c-0.15,0.06-0.3,0.13-0.44,0.23c-0.07,0.05-0.13,0.11-0.2,0.16c-0.1,0.08-0.14,0.18-0.13,0.3
			c0.03,0.04,0.06,0.08,0.09,0.12c0.13,0.08,0.28,0.12,0.43,0.12c0.34,0,0.69,0,1.03,0c0.17,0.01,0.33,0,0.49-0.02
			c0.19-0.02,0.38-0.05,0.57-0.11c0.19-0.05,0.37-0.11,0.55-0.19c0.15-0.06,0.3-0.13,0.44-0.23c0.07-0.05,0.13-0.11,0.2-0.16
			c0.1-0.08,0.14-0.18,0.13-0.3c-0.03-0.04-0.06-0.08-0.09-0.12C82.14,83.08,82,83.04,81.84,83.04L81.84,83.04z"/>
	</g>
</g>
</svg>
