<svg id="Layer_1" data-name="Layer 1" xmlns="http://www.w3.org/2000/svg" viewBox="0 0 131.1 135.67"><defs><style>.cls-1{fill:#280a16;stroke:#e74692;}.cls-1,.cls-12,.cls-15,.cls-18,.cls-3,.cls-4,.cls-5{stroke-miterlimit:10;stroke-width:4px;}.cls-10,.cls-13,.cls-2,.cls-6,.cls-8{font-size:21.93px;}.cls-2{fill:#e94592;}.cls-10,.cls-13,.cls-16,.cls-2,.cls-6,.cls-8{font-family:MyriadPro-Regular, Myriad Pro;}.cls-3{fill:#523a5c;stroke:#ac7eb6;}.cls-4{fill:#061019;stroke:#3dbff0;}.cls-5{fill:#5f4b26;stroke:#fbbb4e;}.cls-6{fill:#fbbb4e;}.cls-7{letter-spacing:0em;}.cls-8{fill:#3bbff0;letter-spacing:-0.02em;}.cls-9{letter-spacing:0em;}.cls-10{fill:#ac7eb6;}.cls-11{letter-spacing:-0.02em;}.cls-12{fill:#383665;stroke:#b697c6;}.cls-13{fill:#b08ab6;}.cls-14{letter-spacing:-0.01em;}.cls-15{fill:#260d1d;stroke:#cc4c95;}.cls-16{font-size:20.1px;fill:#cd4b95;}.cls-17{letter-spacing:-0.01em;}.cls-18{fill:#fff;stroke:#1e7baf;}.cls-19{fill:#1f77bd;}</style></defs><ellipse class="cls-1" cx="39.33" cy="21.51" rx="17.5" ry="17.7"/><text class="cls-2" transform="translate(30.95 29.73) scale(0.99 1)">Id</text><ellipse class="cls-3" cx="111.6" cy="67.84" rx="17.5" ry="17.7"/><ellipse class="cls-4" cx="19.5" cy="68.28" rx="17.5" ry="17.7"/><ellipse class="cls-5" cx="91.84" cy="19.7" rx="17.5" ry="17.7"/><text class="cls-6" transform="translate(82.5 27.44) scale(0.99 1)"><tspan class="cls-7">A</tspan><tspan x="13.35" y="0">i</tspan></text><text class="cls-8" transform="translate(10.13 75.67) scale(0.99 1)">P<tspan class="cls-9" x="11.18" y="0">s</tspan></text><text class="cls-10" transform="translate(102.08 75.32) scale(0.99 1)"><tspan class="cls-11">P</tspan><tspan x="11.31" y="0">r</tspan></text><ellipse class="cls-12" cx="38.54" cy="115.04" rx="17.5" ry="17.7"/><text class="cls-13" transform="translate(27.36 122.43) scale(0.99 1)"><tspan class="cls-14">A</tspan><tspan x="13.16" y="0">e</tspan></text><ellipse class="cls-15" cx="94.1" cy="115.98" rx="17.5" ry="17.7"/><text class="cls-16" transform="translate(82.84 123.3) scale(1.08 1)"><tspan class="cls-17">X</tspan><tspan x="11.26" y="0">d</tspan></text><ellipse class="cls-18" cx="65.55" cy="67.84" rx="17.5" ry="17.7"/><text x="-9.45" y="-3.95"/><path class="cls-19" d="M70.83,74.61l-6.16,4.83L62,78.09V65.5l2.68-1.36L70.78,69l9.7-9.76,6.38,2.55v20l-6.35,2.6Zm9.46,1.7v-9L74.48,71.8l5.81,4.51ZM64.88,74.68l3.05-2.79-3.05-3Z" transform="translate(-9.45 -3.95)"/></svg>